<svg xmlns="http://www.w3.org/2000/svg" xmlns:xlink="http://www.w3.org/1999/xlink" version="1.1" id="Your_Icon" x="0px" y="0px" width="100px" height="100px" viewBox="0 0 100 100" enable-background="new 0 0 100 100" xml:space="preserve">
<path d="M96.74,11.197c-1.402-1.401-3.148-2.396-5.048-2.894c-0.498-1.9-1.493-3.646-2.895-5.047  c-2.104-2.106-4.905-3.267-7.882-3.267c-2.979,0-5.778,1.161-7.884,3.267c-2.106,2.105-3.266,4.904-3.265,7.882  c0,2.138,0.597,4.183,1.712,5.945l-5.891,5.892c-2.201-0.833-4.552-1.287-6.977-1.287c-5.261,0-10.208,2.049-13.929,5.77  L34.479,37.663c-1.077-0.112-2.161-0.168-3.24-0.168c-8.351,0-16.198,3.25-22.098,9.15c-12.188,12.188-12.188,32.021,0,44.209  c5.905,5.905,13.755,9.157,22.105,9.157c8.351,0,16.201-3.252,22.105-9.157c6.667-6.667,9.944-16.008,8.981-25.337l10.206-10.206  c3.72-3.719,5.769-8.666,5.769-13.927c0-2.425-0.454-4.776-1.288-6.979l5.892-5.891c1.764,1.116,3.809,1.714,5.946,1.714  c2.979,0,5.777-1.16,7.883-3.266C101.086,22.617,101.086,15.544,96.74,11.197z M93.251,23.474c-1.174,1.174-2.733,1.82-4.394,1.82  c-1.659,0-3.221-0.647-4.395-1.82c-0.964-0.964-2.525-0.964-3.489,0l-6.4,6.4c-0.612-0.847-1.279-1.663-2.033-2.417  c-0.755-0.754-1.571-1.42-2.419-2.035l6.401-6.401c0.463-0.462,0.723-1.09,0.723-1.745c0-0.654-0.26-1.283-0.723-1.746  c-1.174-1.173-1.819-2.732-1.819-4.392s0.646-3.22,1.819-4.393c1.173-1.174,2.733-1.821,4.394-1.821  c1.658,0,3.219,0.646,4.393,1.821c1.038,1.038,1.676,2.418,1.795,3.887c0.097,1.206,1.055,2.163,2.261,2.26  c1.468,0.118,2.848,0.755,3.886,1.793C95.672,17.109,95.673,21.051,93.251,23.474z"/>
</svg>