<svg xmlns="http://www.w3.org/2000/svg" xmlns:xlink="http://www.w3.org/1999/xlink" version="1.1" id="Layer_1" x="0px" y="0px" width="100px" height="100px" viewBox="0 0 100 100" enable-background="new 0 0 100 100" xml:space="preserve">
<path d="M86.99,75.753c-0.245-0.379-6.227-9.27-16.294-12.328c-1.478-0.448-3.001-0.753-4.514-0.903  c-11.02-1.09-17.078,6.305-18.939,9.069h-0.098l2.711-10.59c0.47-1.608,0.953-3.224,1.437-4.832l1.538-0.026  c1.421,1.445,4.318,3.95,8.521,5.225c3.348,1.016,6.832,1.051,10.357,0.107c11.709-3.139,17.174-15.036,17.402-15.543  c0.51-1.14,0.166-2.474-0.843-3.219c-0.16-0.111-3.891-2.846-9.294-4.485c-4.726-1.439-9.26-1.619-13.483-0.542  c-5.138,1.31-8.445,4.155-10.562,7.041c0.882-2.672,1.752-5.247,2.579-7.659c4.374-0.461,11.825-2.459,15.539-10.471  c5.153-11.071-1.663-23.465-1.952-23.99c-0.554-0.984-1.671-1.508-2.781-1.314c-0.586,0.106-14.481,2.72-19.775,13.73  c-5.134,10.682,2.353,19.672,3.678,21.141c-0.843,2.447-1.754,5.152-2.692,8.024c-0.261-3.438-1.476-7.38-4.823-11.101  c-2.912-3.243-6.782-5.613-11.509-7.052c-5.41-1.639-10.033-1.443-10.227-1.433c-1.241,0.055-2.278,0.973-2.483,2.201  c-0.089,0.546-2.166,13.481,5.817,22.596c2.414,2.744,5.326,4.653,8.673,5.671c5.169,1.564,9.783,0.502,11.065,0.142  c-1.515,5.01-2.986,10.162-4.242,15.146l-0.178-0.104C41.397,67.05,39.88,57.43,29.628,52.872  c-11.683-5.204-24.149,0.973-24.632,1.215c-1.115,0.564-1.685,1.826-1.367,3.03c0.144,0.567,3.746,13.93,15.38,19.271  c0.904,0.418,1.807,0.753,2.684,1.023c7.742,2.35,14.027-0.675,17.091-2.681l1.726,1.009c-1.946,8.64-3.023,16.257-2.244,20.806  c0.166,1.019,0.912,1.812,1.843,2.091c0.379,0.111,0.793,0.146,1.206,0.078c1.443-0.248,2.416-1.615,2.174-3.061  c-0.572-3.356,0.137-9.062,1.552-15.841l0.76-2.937l1.58,0.017c1.532,3.039,5.099,8.362,12.167,10.507  c1.351,0.41,2.778,0.684,4.241,0.811c12.751,1.114,22.489-8.728,22.896-9.146C87.55,78.169,87.683,76.789,86.99,75.753   M53.605,76.959l8.135,0.087c1.469,0.014,2.662-1.157,2.677-2.617c0.02-1.472-1.16-2.675-2.615-2.679l-7.646-0.084  c2.34-2.151,6.107-4.404,11.512-3.87c1.164,0.116,2.346,0.352,3.49,0.699c5.713,1.738,9.956,5.96,12.021,8.39  c-2.954,2.39-9.406,6.703-16.92,6.05c-1.104-0.096-2.174-0.3-3.175-0.605C57.477,81.237,55.103,78.974,53.605,76.959 M53.322,17.319  c3.084-6.422,10.475-9.289,14-10.32c1.44,3.384,3.927,10.904,0.923,17.367c-2.02,4.35-5.684,6.181-8.727,6.969  c0.82-2.303,1.58-4.392,2.222-6.104c0.515-1.371-0.181-2.901-1.555-3.409c-1.351-0.592-2.896,0.181-3.407,1.55  c-0.172,0.453-1.091,2.936-2.436,6.716C52.658,27.284,50.81,22.523,53.322,17.319 M77.436,43.294  c2.375,0.722,4.368,1.702,5.741,2.468c-1.891,3.082-6.167,8.804-12.84,10.594c-2.553,0.684-5.058,0.662-7.444-0.061  c-0.284-0.088-0.525-0.208-0.794-0.311l1.973-0.035c1.455-0.022,2.63-1.232,2.604-2.692c-0.029-1.462-1.23-2.625-2.699-2.607  l-6.444,0.111c1.208-2.751,3.802-6.544,9.273-7.939C70.066,41.988,73.649,42.147,77.436,43.294 M36.313,46.032l5.389,4.519  c-1.457,0.094-3.256,0.03-5.182-0.555c-2.387-0.72-4.486-2.098-6.231-4.09c-4.546-5.195-4.925-12.333-4.775-15.941  c1.567,0.124,3.767,0.422,6.148,1.143c3.781,1.153,6.845,3.008,9.095,5.517c2.794,3.115,3.517,6.444,3.51,9.168l-4.553-3.818  c-1.119-0.938-2.794-0.797-3.733,0.328C35.045,43.42,35.188,45.091,36.313,46.032 M27.702,68.252l5.735,3.35  c-2.925,1.291-7.287,2.233-12.221-0.027c-6.822-3.133-10.322-10.1-11.722-13.643c3.567-1.304,11.045-3.304,17.981-0.217  c4.917,2.185,7.093,5.97,8.072,8.981l-5.175-3.016c-1.269-0.734-2.884-0.316-3.622,0.947C26.013,65.896,26.433,67.517,27.702,68.252  "/>
</svg>