<svg xmlns="http://www.w3.org/2000/svg" xmlns:xlink="http://www.w3.org/1999/xlink" version="1.1" id="Your_Icon" x="0px" y="0px" width="100px" height="100px" viewBox="0 0 100 100" enable-background="new 0 0 100 100" xml:space="preserve">
<g>
	<rect x="62.875" y="6.203" fill="none" width="3.041" height="16.369"/>
	<rect x="68.956" y="6.203" fill="none" width="3.041" height="16.369"/>
	<rect x="50.712" y="6.203" fill="none" width="3.041" height="16.369"/>
	<rect x="75.038" y="6.203" fill="none" width="2.403" height="16.369"/>
	<rect x="44.63" y="6.203" fill="none" width="3.041" height="16.369"/>
	<rect x="56.793" y="6.203" fill="none" width="3.041" height="16.369"/>
	<rect x="38.549" y="6.203" fill="none" width="3.041" height="16.369"/>
	<polygon fill="none" points="29.427,6.203 26.686,6.203 26.686,20.367 26.686,22.572 29.427,22.572  "/>
	<path fill="none" d="M25.579,25.613c-2.364,2.549-3.705,6.083-3.705,9.837v43.016c0,7.436,5.254,13.485,11.713,13.485h36.531   c6.458,0,11.713-6.049,11.713-13.485V35.45c0-3.737-1.345-7.286-3.71-9.837H25.579z M68.94,64.21H57.714v11.226H46.413V64.21   H35.188V52.909h11.225V41.684h11.301v11.226H68.94V64.21z"/>
	<rect x="32.468" y="6.203" fill="none" width="3.041" height="16.369"/>
	<polygon fill="#000000" points="57.714,41.684 46.413,41.684 46.413,52.909 35.188,52.909 35.188,64.21 46.413,64.21    46.413,75.436 57.714,75.436 57.714,64.21 68.94,64.21 68.94,52.909 57.714,52.909  "/>
	<path fill="#000000" d="M80.482,23.693V3.163H23.645v20.079c-3.064,3.131-4.811,7.538-4.811,12.209v43.016   c0,9.113,6.618,16.526,14.753,16.526h36.531c8.135,0,14.753-7.414,14.753-16.526V35.45C84.872,31.019,83.281,26.79,80.482,23.693z    M75.038,6.203h2.403v16.369h-2.403V6.203z M68.956,6.203h3.041v16.369h-3.041V6.203z M62.875,6.203h3.041v16.369h-3.041V6.203z    M56.793,6.203h3.041v16.369h-3.041V6.203z M50.712,6.203h3.041v16.369h-3.041V6.203z M44.63,6.203h3.041v16.369H44.63V6.203z    M38.549,6.203h3.041v16.369h-3.041V6.203z M32.468,6.203h3.041v16.369h-3.041V6.203z M26.686,20.367V6.203h2.741v16.369h-2.741   V20.367z M81.831,78.466c0,7.436-5.254,13.485-11.713,13.485H33.587c-6.458,0-11.713-6.049-11.713-13.485V35.45   c0-3.754,1.34-7.288,3.705-9.837h52.541c2.365,2.55,3.71,6.1,3.71,9.837V78.466z"/>
</g>
</svg>