<svg xmlns="http://www.w3.org/2000/svg" xmlns:xlink="http://www.w3.org/1999/xlink" version="1.1" id="leather_fill" x="0px" y="0px" width="100px" height="100px" viewBox="0 0 100 100" enable-background="new 0 0 100 100" xml:space="preserve">
<path stroke="#000000" stroke-width="4" stroke-linejoin="round" stroke-miterlimit="10" d="M97.5,28.003L86.046,13.668  c-2.468,0.995-5.189,1.555-8.056,1.555c-8.66,0-16.031-5.03-18.993-12.113H50v0h-8.997c-2.962,7.083-10.333,12.113-18.994,12.113  c-2.866,0-5.587-0.561-8.056-1.555L2.5,28.004c8.448,5.363,14.283,16.761,14.283,29.971c0,10.136-3.439,19.204-8.856,25.304  l15.817,10.574c2.812-2.456,7.099-4.029,11.907-4.029c6.575,0,12.167,2.941,14.349,7.066c2.182-4.125,7.774-7.066,14.349-7.066  c4.809,0,9.095,1.573,11.907,4.029l15.816-10.574c-5.416-6.1-8.855-15.168-8.855-25.304C83.217,44.765,89.052,33.366,97.5,28.003z"/>
</svg>