<svg xmlns="http://www.w3.org/2000/svg" xmlns:xlink="http://www.w3.org/1999/xlink" version="1.1" id="Your_Icon" x="0px" y="0px" width="100px" height="100px" viewBox="0 0 100 100" enable-background="new 0 0 100 100" xml:space="preserve">
<g>
	<g>
		<g>
			<g>
			</g>
		</g>
		<g>
		</g>
	</g>
</g>
<path d="M87.335,76.487c-0.143-0.094-14.248-9.559-13.964-24.238c0.321-16.785,12.926-19.206,13.463-19.301  c0.187-0.033,0.352-0.144,0.452-0.305c0.102-0.161,0.13-0.358,0.077-0.541l-3.456-12.088c-0.082-0.288-0.346-0.487-0.646-0.487  c-19.127,0-22.125-12.106-22.244-12.622c-0.069-0.305-0.342-0.522-0.654-0.522H39.879c-0.314,0-0.586,0.218-0.655,0.524  c-0.029,0.126-3.06,12.62-22.245,12.62c-0.3,0-0.563,0.199-0.646,0.487l-3.456,12.088c-0.052,0.183-0.024,0.38,0.077,0.542  c0.102,0.161,0.267,0.272,0.454,0.305c0.131,0.022,13.14,2.474,13.462,19.301c0.284,14.68-13.821,24.145-13.964,24.238  c-0.157,0.104-0.264,0.268-0.293,0.454c-0.03,0.186,0.02,0.375,0.136,0.522l8.835,11.171c0.226,0.287,0.64,0.34,0.932,0.119  c0.046-0.035,4.695-3.486,12.396-3.486c1.022,0,2.067,0.062,3.105,0.183c6.612,0.772,11.471,9.196,11.519,9.281  c0.12,0.21,0.342,0.34,0.584,0.34s0.465-0.13,0.584-0.34c0.048-0.085,4.896-8.508,11.52-9.281c1.038-0.121,2.082-0.183,3.104-0.183  c7.673,0,12.351,3.452,12.397,3.487c0.29,0.217,0.704,0.167,0.931-0.12l8.835-11.171c0.117-0.147,0.166-0.337,0.137-0.522  C87.599,76.755,87.492,76.591,87.335,76.487z M77.992,87.312c-1.495-0.953-5.967-3.388-12.663-3.388  c-1.074,0-2.171,0.064-3.261,0.191c-5.958,0.696-10.404,6.65-11.947,9.009c-1.543-2.358-5.99-8.312-11.947-9.009  c-1.089-0.127-2.187-0.191-3.261-0.191c-6.696,0-11.168,2.435-12.663,3.388l-8.009-10.127c2.772-2.042,14.236-11.327,13.973-24.962  C27.915,36.667,17.261,32.616,14.36,31.801l3.126-10.934C35.017,20.669,39.55,10.21,40.378,7.726h19.486  c0.828,2.484,5.361,12.943,22.891,13.141l3.126,10.934c-2.902,0.815-13.555,4.868-13.852,20.422  c-0.265,13.635,11.199,22.92,13.972,24.962L77.992,87.312z"/>
<path d="M24.66,81.27c-0.001,0-0.001,0.001-0.002,0.001c-0.004,0.001-0.008,0-0.013,0.002c-0.412,0.15-0.803,0.304-1.172,0.457  l-0.772-0.976h0c-0.001-0.001,0-0.003-0.001-0.004c-0.069-0.088-0.176-0.113-0.284-0.104c-0.065,0.004-0.131,0.009-0.186,0.052  c-0.021,0.017-0.02,0.044-0.036,0.064c-0.042,0.051-0.083,0.102-0.088,0.165c-0.008,0.084,0.013,0.171,0.069,0.242l0.93,1.177  c0.065,0.083,0.163,0.128,0.263,0.128c0.044,0,0.089-0.009,0.132-0.027c0.427-0.184,0.886-0.365,1.375-0.544  c0.002-0.001,0.004-0.003,0.006-0.004c0,0,0,0,0.008,0h0.01c0.02-0.009,0.03-0.028,0.048-0.04c0.022-0.016,0.042-0.031,0.059-0.05  c0.06-0.063,0.103-0.139,0.103-0.229c0-0.04,0-0.08-0.02-0.11C25.03,81.3,24.83,81.2,24.66,81.27z"/>
<path d="M30.32,79.84c0,0,0,0-0.01,0c-0.95,0.14-1.91,0.33-2.85,0.57c-0.15,0.04-0.26,0.17-0.26,0.319c0,0.03,0.01,0.061,0.01,0.09  c0.04,0.15,0.18,0.25,0.33,0.25c0.03,0,0.05,0,0.08-0.01c0.91-0.229,1.85-0.42,2.8-0.56c0.17-0.021,0.29-0.16,0.29-0.33  c0-0.021,0-0.03,0-0.05C30.68,79.939,30.52,79.819,30.32,79.84z"/>
<path d="M36.16,79.53c-1.05-0.04-1.99-0.03-2.93,0.02c-0.17,0.01-0.31,0.15-0.31,0.33c0,0.01,0,0.01,0,0.02  c0.01,0.181,0.15,0.32,0.33,0.32h0.02c0.01,0,0.02,0,0.03-0.01c1.01-0.05,1.97-0.05,2.83-0.01h0.01c0.18,0,0.33-0.15,0.34-0.33  v-0.011C36.48,79.68,36.33,79.53,36.16,79.53z"/>
<path d="M41.94,80.479c-0.95-0.33-1.91-0.569-2.87-0.71c-0.18-0.02-0.35,0.101-0.38,0.29c0,0.01,0,0.03,0,0.05  c0,0.16,0.11,0.301,0.27,0.33c0.01,0,0.01,0,0.01,0c0.01,0,0.02,0,0.04,0c0.9,0.13,1.81,0.36,2.71,0.681  c0.03,0.01,0.07,0.01,0.1,0.01c0.15,0,0.28-0.09,0.32-0.22c0.02-0.04,0.02-0.08,0.02-0.12C42.16,80.649,42.07,80.53,41.94,80.479z"/>
<path d="M44.66,81.72c-0.01-0.01-0.03-0.02-0.04-0.02c0-0.011-0.01-0.011-0.01-0.011c-0.16-0.08-0.36-0.01-0.45,0.141  c-0.02,0.05-0.04,0.1-0.04,0.16c0,0.119,0.07,0.229,0.17,0.29c0.8,0.449,1.6,0.97,2.38,1.56c0.06,0.05,0.13,0.07,0.2,0.07  c0.1,0,0.21-0.051,0.27-0.13c0.11-0.15,0.08-0.36-0.06-0.471C46.28,82.71,45.46,82.17,44.66,81.72z"/>
<path d="M21.271,76.543c-0.001,0,0-0.002-0.001-0.003c-0.039-0.039-0.092-0.043-0.141-0.059c-0.114-0.037-0.237-0.035-0.33,0.054  c0-0.001,0-0.005,0-0.005c-0.002,0.002-0.001,0.005-0.003,0.007c-0.372,0.36-0.735,0.699-1.084,1.015  c-0.131,0.118-0.148,0.318-0.038,0.457l0.93,1.177c0.066,0.084,0.164,0.128,0.263,0.128c0.073,0,0.146-0.023,0.208-0.072  c0.146-0.115,0.17-0.326,0.055-0.472l-0.736-0.932c0.282-0.259,0.573-0.532,0.869-0.819C21.398,76.89,21.401,76.677,21.271,76.543  C21.272,76.544,21.271,76.544,21.271,76.543z"/>
<path d="M32.62,51.59c-0.01-0.18-0.15-0.33-0.33-0.33h-0.02c-0.18,0.01-0.32,0.16-0.32,0.34v0.01c0.01,0.181,0.01,0.36,0.01,0.54  v0.08c0.01,0.16,0.01,0.311,0.01,0.471c0,0.59-0.02,1.17-0.05,1.72c0,0.01,0,0.01,0,0.02c-0.01,0.181,0.13,0.32,0.3,0.33  c0.01,0.011,0.02,0.011,0.03,0.011c0.18,0,0.32-0.141,0.34-0.32c0.03-0.59,0.05-1.18,0.05-1.76c0-0.19,0-0.381,0-0.561l-0.01-0.09  C32.63,51.899,32.63,51.74,32.62,51.59z"/>
<path d="M28.33,38.2c0,0,0,0,0.01,0.01c0.06,0.09,0.17,0.15,0.28,0.15c0.06,0,0.12-0.01,0.17-0.04c0.1-0.06,0.16-0.17,0.17-0.29  c0-0.06-0.02-0.12-0.05-0.18c-0.5-0.83-1.04-1.63-1.62-2.38c-0.11-0.14-0.33-0.17-0.47-0.06c-0.08,0.06-0.13,0.17-0.13,0.27  c0,0.07,0.02,0.14,0.07,0.2c0.57,0.74,1.09,1.51,1.56,2.3C28.32,38.18,28.33,38.19,28.33,38.2z"/>
<path d="M23.6,31.7c-0.13-0.1-0.25-0.2-0.38-0.3c-0.14-0.11-0.36-0.08-0.47,0.06c-0.05,0.06-0.07,0.13-0.07,0.2  c-0.01,0.11,0.04,0.21,0.13,0.27l0.07,0.06c0.1,0.08,0.2,0.16,0.3,0.24c0.59,0.47,1.17,1,1.73,1.55c0.06,0.06,0.15,0.1,0.24,0.1  s0.17-0.04,0.24-0.1c0.06-0.06,0.09-0.15,0.09-0.24c0-0.09-0.03-0.17-0.09-0.23C24.81,32.73,24.21,32.19,23.6,31.7z"/>
<path d="M32.08,49.1c0.01,0,0.02,0,0.04,0c0.17-0.02,0.3-0.17,0.29-0.34c0-0.01,0-0.02,0-0.03v-0.01c-0.11-0.96-0.26-1.91-0.45-2.83  c-0.04-0.17-0.22-0.3-0.4-0.26c-0.15,0.04-0.27,0.17-0.26,0.33c0,0.02,0,0.05,0,0.07c0.19,0.91,0.34,1.85,0.45,2.78  C31.76,48.97,31.91,49.1,32.08,49.1z"/>
<path d="M31.25,43.21c0-0.03,0-0.07-0.01-0.1c-0.29-0.93-0.63-1.83-1.01-2.69c-0.08-0.17-0.28-0.25-0.45-0.17  c-0.12,0.05-0.2,0.17-0.2,0.31c0,0.04,0.01,0.09,0.03,0.13c0.37,0.84,0.7,1.72,0.99,2.62c0.04,0.14,0.17,0.24,0.32,0.24  c0.03,0,0.06-0.01,0.1-0.02C31.16,43.49,31.25,43.36,31.25,43.21z"/>
<path d="M28.4,67.88c-0.01-0.12-0.07-0.23-0.17-0.28c-0.16-0.09-0.37-0.04-0.46,0.12c-0.46,0.79-0.96,1.59-1.5,2.38  c-0.04,0.061-0.06,0.12-0.06,0.19c0,0.109,0.05,0.21,0.14,0.279c0.06,0.03,0.12,0.061,0.19,0.061c0.11,0,0.21-0.061,0.28-0.15  c0.55-0.81,1.07-1.63,1.53-2.42C28.38,68,28.4,67.939,28.4,67.88z"/>
<path d="M30.6,62.439c-0.17-0.069-0.36,0.021-0.43,0.181c0,0.01,0,0.01,0,0.02c-0.01,0.01-0.01,0.021-0.01,0.03  c-0.32,0.85-0.68,1.71-1.08,2.56c-0.02,0.04-0.03,0.09-0.03,0.141c0,0.13,0.07,0.25,0.19,0.3c0.04,0.03,0.09,0.04,0.14,0.04  c0.13,0,0.25-0.08,0.31-0.19c0-0.01,0-0.01,0-0.01c0.41-0.87,0.78-1.76,1.11-2.64c0.01-0.04,0.02-0.08,0.02-0.12  C30.82,62.609,30.73,62.479,30.6,62.439z"/>
<path d="M24.59,72.359c-0.57,0.73-1.19,1.45-1.83,2.15c-0.06,0.07-0.09,0.16-0.09,0.25c0.01,0.09,0.04,0.17,0.11,0.23  c0.06,0.05,0.14,0.09,0.23,0.09s0.18-0.04,0.25-0.11v-0.01c0.65-0.72,1.27-1.45,1.85-2.18c0.05-0.061,0.08-0.131,0.08-0.211  c0-0.1-0.05-0.199-0.13-0.26C24.92,72.2,24.7,72.229,24.59,72.359z"/>
<path d="M31.99,56.93c-0.19-0.03-0.36,0.101-0.39,0.28c-0.14,0.91-0.34,1.84-0.58,2.75c-0.01,0.02-0.01,0.05-0.01,0.08  c-0.01,0.149,0.1,0.29,0.24,0.319c0.03,0.011,0.06,0.021,0.09,0.021c0.15,0,0.29-0.11,0.33-0.25c0.24-0.93,0.44-1.87,0.6-2.811  c0-0.02,0-0.039,0-0.05C32.27,57.1,32.15,56.96,31.99,56.93z"/>
<path d="M20.807,29.782c-0.004-0.002-0.004-0.008-0.008-0.01c-0.371-0.216-0.734-0.416-1.089-0.598l0.333-1.165  c0.001-0.004,0.005-0.005,0.007-0.009c0.05-0.18-0.06-0.37-0.23-0.42c-0.007-0.002-0.013,0.003-0.02,0.002  c-0.079-0.019-0.156-0.008-0.224,0.025c-0.008,0.004-0.015,0.006-0.023,0.011c-0.067,0.04-0.12,0.104-0.146,0.183  c-0.001,0.004-0.006,0.005-0.008,0.01c0,0.001,0.001,0.003,0,0.005l-0.412,1.441c-0.044,0.155,0.028,0.32,0.173,0.393  c0.419,0.21,0.854,0.443,1.299,0.704c0.003,0.001,0.006,0.001,0.009,0.002c0.004,0.001,0.01,0.005,0.01,0.005l0.01,0.01  c0.05,0.03,0.11,0.04,0.17,0.04c0.12,0,0.23-0.06,0.29-0.16c0.03-0.05,0.04-0.11,0.04-0.18c0-0.11-0.06-0.22-0.16-0.28  C20.822,29.782,20.815,29.783,20.807,29.782z"/>
<path d="M22.062,24.345c0,0-0.001,0-0.002,0c0-0.001,0-0.005,0-0.005c-0.007,0.001-0.014,0.006-0.021,0.008  c-0.476,0.053-0.962,0.1-1.459,0.138c-0.14,0.011-0.258,0.107-0.297,0.242l-0.412,1.442c-0.051,0.178,0.052,0.364,0.23,0.415  c0.031,0.009,0.062,0.013,0.092,0.013c0.146,0,0.281-0.096,0.323-0.244l0.348-1.219c0.432-0.035,0.856-0.077,1.272-0.124  c0.185-0.021,0.317-0.187,0.296-0.371C22.412,24.457,22.247,24.324,22.062,24.345z"/>
<path d="M38.98,17.64c0.09,0,0.17-0.03,0.24-0.09v-0.01c0.65-0.63,1.26-1.31,1.82-2.01c0.05-0.06,0.07-0.14,0.07-0.22  c0-0.1-0.05-0.19-0.12-0.25c-0.14-0.12-0.36-0.09-0.48,0.05c-0.54,0.68-1.14,1.34-1.76,1.96c-0.07,0.06-0.1,0.15-0.1,0.24  c0,0.09,0.03,0.17,0.09,0.23C38.81,17.61,38.89,17.64,38.98,17.64z"/>
<path d="M36.76,18.81c-0.7,0.54-1.43,1.04-2.18,1.5c-0.1,0.06-0.16,0.17-0.16,0.29c0,0.06,0.02,0.12,0.05,0.17  c0.06,0.1,0.17,0.16,0.29,0.16c0.06,0,0.12-0.02,0.17-0.05c0.78-0.47,1.53-0.99,2.24-1.54c0.08-0.07,0.13-0.17,0.13-0.27  c0-0.08-0.03-0.15-0.07-0.2C37.12,18.73,36.9,18.7,36.76,18.81z"/>
<path d="M32.26,21.57c-0.78,0.37-1.6,0.71-2.45,1.01c-0.13,0.05-0.22,0.18-0.22,0.32c0,0.04,0.01,0.08,0.02,0.11  c0.05,0.14,0.18,0.23,0.32,0.23c0.04,0,0.07-0.01,0.11-0.02c0.86-0.32,1.71-0.67,2.5-1.05c0.12-0.05,0.2-0.17,0.2-0.3  c0-0.05-0.01-0.1-0.04-0.14C32.63,21.56,32.42,21.49,32.26,21.57z"/>
<path d="M24.75,24.62c0.02,0,0.05,0,0.07,0c0.91-0.17,1.8-0.37,2.64-0.6c0.14-0.03,0.25-0.17,0.24-0.32c0-0.03,0-0.06-0.01-0.09  c-0.04-0.17-0.23-0.28-0.39-0.24c-0.01,0-0.01,0-0.02,0c-0.01,0.01-0.02,0.01-0.03,0.01c-0.85,0.23-1.71,0.42-2.56,0.58  c-0.08,0.01-0.16,0.06-0.21,0.14c-0.05,0.07-0.07,0.16-0.06,0.25C24.45,24.51,24.59,24.62,24.75,24.62z"/>
<path d="M44.556,12.148c0.001,0,0.002,0.002,0.004,0.002c0.143,0,0.239-0.097,0.291-0.219c0.017-0.04,0.049-0.072,0.049-0.118v0  c0-0.001,0-0.001,0-0.002c0-0.054-0.035-0.094-0.059-0.14c-0.056-0.108-0.147-0.193-0.277-0.193h-1.5  c-0.125,0-0.24,0.069-0.297,0.18c-0.21,0.401-0.448,0.825-0.716,1.263c0,0,0,0,0,0c0,0.01-0.01,0.02-0.02,0.03  C42,13,41.98,13.06,41.98,13.12c0,0.12,0.06,0.23,0.16,0.29c0.06,0.03,0.12,0.05,0.18,0.05c0.11,0,0.22-0.05,0.28-0.15  c0,0,0-0.01,0.01-0.01c0-0.005,0.002-0.01,0.005-0.015c0.241-0.392,0.458-0.772,0.651-1.137H44.556z"/>
<path d="M51.97,11.48h-3.7c-0.19,0-0.34,0.15-0.34,0.33c0,0.19,0.15,0.34,0.34,0.34h3.7c0.19,0,0.34-0.15,0.34-0.34  C52.31,11.63,52.16,11.48,51.97,11.48z"/>
<path d="M58.197,13.254c0.012-0.023,0.039-0.038,0.045-0.062c0.021-0.083,0.009-0.175-0.04-0.254  c-0.273-0.444-0.514-0.873-0.726-1.28c-0.059-0.111-0.173-0.18-0.298-0.18h-1.5c-0.186,0-0.336,0.15-0.336,0.335  s0.15,0.335,0.336,0.335h1.298c0.195,0.366,0.412,0.748,0.653,1.141c0,0,0,0.001,0,0.001c0.034,0.056,0.086,0.095,0.145,0.123  c0.045,0.021,0.092,0.037,0.142,0.037h0.001c0.001,0,0.002,0,0.003,0c0.058,0,0.114-0.02,0.163-0.048  c0.003-0.001,0.006-0.001,0.009-0.002C58.147,13.365,58.17,13.308,58.197,13.254z"/>
<path d="M65.47,20.92c0.11,0,0.22-0.06,0.28-0.16c0.04-0.05,0.05-0.11,0.05-0.17c0-0.12-0.06-0.23-0.16-0.29  c-0.75-0.46-1.47-0.96-2.149-1.49c-0.011,0-0.011-0.01-0.021-0.01c0,0,0-0.01-0.01-0.01c-0.141-0.1-0.351-0.07-0.46,0.07  c-0.05,0.05-0.07,0.12-0.07,0.2c0,0.11,0.05,0.2,0.13,0.27c0.69,0.54,1.45,1.06,2.23,1.54C65.35,20.9,65.41,20.92,65.47,20.92z"/>
<path d="M67.68,22.17c0.79,0.37,1.63,0.72,2.51,1.04c0.03,0.01,0.07,0.02,0.11,0.02c0.14,0,0.27-0.09,0.31-0.22  c0.021-0.04,0.021-0.08,0.021-0.12c0-0.14-0.09-0.26-0.22-0.31c-0.841-0.31-1.66-0.65-2.44-1.02c-0.16-0.08-0.37-0.01-0.45,0.16  c-0.02,0.04-0.029,0.09-0.029,0.14c0,0.13,0.069,0.24,0.18,0.3C67.68,22.16,67.68,22.16,67.68,22.17z"/>
<path d="M59.72,15.1c-0.11-0.14-0.34-0.17-0.47-0.06c-0.07,0.06-0.12,0.14-0.13,0.23c-0.011,0.09,0.02,0.17,0.069,0.25  c0.57,0.71,1.181,1.38,1.82,2.02c0.07,0.06,0.15,0.09,0.24,0.09s0.17-0.03,0.24-0.1c0.06-0.06,0.09-0.15,0.09-0.24  c0-0.08-0.03-0.17-0.101-0.23C60.85,16.43,60.26,15.77,59.72,15.1z"/>
<path d="M72.77,24.02c0.84,0.23,1.73,0.42,2.641,0.59c0.02,0.01,0.04,0.01,0.06,0.01c0.16,0,0.3-0.12,0.33-0.28  c0.01-0.02,0.01-0.04,0.01-0.06c-0.01-0.16-0.12-0.3-0.279-0.33c-0.891-0.16-1.761-0.36-2.591-0.58  c-0.17-0.04-0.359,0.06-0.409,0.24c-0.011,0.02-0.011,0.05-0.011,0.08C72.52,23.85,72.62,23.98,72.77,24.02z"/>
<path d="M77.852,24.833c0.02,0.034,0.036,0.061,0.065,0.086c0.039,0.037,0.086,0.062,0.14,0.077  c0.009,0.002,0.015,0.012,0.023,0.013h0.017c0.003,0,0.005,0.002,0.008,0.002c0.417,0.047,0.841,0.089,1.272,0.125l0.342,1.197  c0.001,0.005,0,0.011,0.001,0.016c0.019,0.056,0.058,0.096,0.095,0.135c0.051,0.053,0.111,0.086,0.185,0.098  c0.018,0.003,0.032,0.017,0.051,0.017c0.03,0,0.06-0.01,0.09-0.01c0.007-0.002,0.008-0.009,0.015-0.012  c0.169-0.057,0.266-0.235,0.217-0.408l-0.412-1.442c-0.039-0.135-0.157-0.231-0.298-0.242c-0.501-0.039-0.99-0.085-1.471-0.14  c-0.004-0.001-0.007-0.005-0.011-0.006h-0.02c-0.181-0.02-0.351,0.12-0.37,0.3c0,0.01,0,0.02,0,0.03  c0,0.028,0.021,0.047,0.027,0.074C77.824,24.775,77.836,24.805,77.852,24.833z"/>
<path d="M80.194,27.999l0.337,1.176c-0.353,0.181-0.715,0.379-1.082,0.594c-0.003,0.002-0.007,0-0.01,0.001  c-0.159,0.1-0.21,0.3-0.12,0.46c0.001,0.001,0.001,0.001,0.002,0.002l0,0c0,0,0.001,0,0.001,0.001  c0.061,0.107,0.179,0.167,0.287,0.167c0.015,0,0.027-0.01,0.041-0.012c0.045-0.005,0.09-0.012,0.13-0.035  c0.445-0.26,0.88-0.494,1.3-0.704c0.145-0.072,0.217-0.237,0.173-0.393l-0.412-1.442c-0.052-0.178-0.239-0.282-0.415-0.23  C80.247,27.634,80.144,27.82,80.194,27.999z"/>
<path d="M70.84,65.68c0.05,0,0.1-0.01,0.15-0.04c0.109-0.05,0.189-0.17,0.189-0.3c0-0.05-0.01-0.1-0.03-0.14  c-0.399-0.851-0.77-1.721-1.09-2.601c-0.06-0.17-0.27-0.26-0.43-0.189c-0.14,0.04-0.22,0.17-0.22,0.31c0,0.04,0,0.08,0.02,0.12  c0.33,0.9,0.7,1.79,1.11,2.64C70.59,65.6,70.71,65.68,70.84,65.68z"/>
<path d="M69.649,43.28c0.29-0.9,0.62-1.78,0.99-2.62c0.021-0.04,0.03-0.09,0.03-0.13c0-0.14-0.07-0.26-0.2-0.31  c-0.16-0.08-0.37,0-0.439,0.17c-0.391,0.88-0.73,1.78-1.021,2.69C69,43.11,69,43.14,69,43.18c0,0.15,0.09,0.28,0.229,0.32  c0.04,0.01,0.07,0.02,0.101,0.02C69.479,43.52,69.609,43.42,69.649,43.28z"/>
<path d="M77.21,75.05c0.08,0,0.16-0.03,0.229-0.09c0.07-0.061,0.11-0.15,0.11-0.24s-0.03-0.17-0.09-0.229  c-0.63-0.69-1.25-1.421-1.83-2.15c-0.11-0.14-0.33-0.17-0.47-0.05c-0.08,0.06-0.13,0.149-0.13,0.25c0,0.08,0.029,0.16,0.069,0.22  c0.01,0,0.01,0.01,0.01,0.01c0.58,0.721,1.2,1.46,1.851,2.17C77.03,75.01,77.12,75.05,77.21,75.05z"/>
<path d="M68.63,57.18c-0.03-0.18-0.19-0.31-0.39-0.28c-0.16,0.03-0.28,0.17-0.28,0.33c0,0.021,0,0.04,0.01,0.061c0,0,0,0,0,0.01  c0.15,0.94,0.35,1.88,0.59,2.8c0.04,0.141,0.181,0.25,0.33,0.25c0.03,0,0.061-0.01,0.09-0.01c0.141-0.04,0.25-0.18,0.24-0.33  c0-0.03,0-0.06-0.01-0.08C68.97,59.01,68.78,58.09,68.63,57.18z"/>
<path d="M72.45,67.689c-0.091-0.159-0.301-0.21-0.46-0.12c-0.101,0.061-0.16,0.16-0.16,0.28c0,0.061,0.01,0.12,0.04,0.181  c0.47,0.81,0.989,1.63,1.529,2.42c0.07,0.09,0.17,0.149,0.28,0.149c0.07,0,0.13-0.02,0.19-0.06c0.09-0.061,0.149-0.17,0.14-0.28  c0-0.07-0.02-0.13-0.05-0.19C73.41,69.28,72.91,68.479,72.45,67.689z"/>
<path d="M74.78,33.52c0,0.09,0.029,0.17,0.1,0.24c0.06,0.06,0.15,0.1,0.24,0.1c0.08,0,0.17-0.04,0.229-0.1  c0.54-0.53,1.11-1.05,1.71-1.53c0.13-0.11,0.26-0.21,0.4-0.32c0.14-0.11,0.17-0.32,0.06-0.47c-0.109-0.14-0.319-0.17-0.46-0.06  h-0.01c-0.14,0.11-0.27,0.21-0.41,0.33c-0.609,0.49-1.2,1.02-1.76,1.57C74.819,33.35,74.78,33.43,74.78,33.52z"/>
<path d="M68,54.74c0,0,0,0,0.01,0c0.17-0.011,0.31-0.16,0.31-0.33V54.39c-0.029-0.58-0.05-1.149-0.05-1.689  c0-0.181,0-0.351,0.011-0.53v-0.021c0-0.189,0.01-0.38,0.01-0.569V51.56c0-0.18-0.141-0.319-0.32-0.33h-0.01  c-0.19,0-0.33,0.141-0.34,0.33c0,0.19-0.011,0.38-0.011,0.58c-0.01,0.18-0.01,0.37-0.01,0.561c0,0.59,0.021,1.17,0.05,1.729  c0.011,0.17,0.16,0.311,0.341,0.311H68z"/>
<path d="M71.47,38.29c0.05,0.03,0.11,0.04,0.17,0.04c0.12,0,0.23-0.06,0.29-0.16c0.48-0.81,1.01-1.59,1.57-2.32  c0.05-0.05,0.069-0.12,0.069-0.19c0-0.11-0.05-0.21-0.13-0.27c-0.14-0.11-0.35-0.09-0.46,0.05h-0.01c-0.59,0.76-1.13,1.56-1.62,2.39  c-0.03,0.05-0.05,0.11-0.05,0.17C71.3,38.12,71.359,38.23,71.47,38.29z"/>
<path d="M68.29,45.86c0,0.01,0,0.01,0,0.01c-0.19,0.92-0.351,1.87-0.46,2.83c0,0.01,0,0.02,0,0.03c0,0.17,0.13,0.32,0.3,0.34  c0.01,0,0.02,0,0.04,0c0.17,0,0.31-0.13,0.33-0.3c0.109-0.97,0.26-1.9,0.45-2.77c0-0.02,0-0.05,0-0.07c0-0.16-0.11-0.3-0.261-0.33  C68.5,45.56,68.319,45.68,68.29,45.86z"/>
<path d="M79.443,76.536c-0.004-0.003-0.009-0.002-0.012-0.005c-0.004-0.005-0.006-0.012-0.012-0.012c-0.12-0.13-0.34-0.12-0.47,0  c-0.061,0.07-0.101,0.15-0.101,0.24c0.01,0.09,0.04,0.17,0.101,0.23c0,0,0,0,0.01,0.01c0,0,0,0.01,0.01,0.02  c0.004,0.003,0.009,0.002,0.013,0.005c0.295,0.285,0.584,0.557,0.864,0.813l-0.737,0.932c-0.119,0.141-0.09,0.351,0.051,0.471  c0.014,0.01,0.028,0.006,0.042,0.014c0.054,0.033,0.11,0.06,0.171,0.06c0.099,0,0.197-0.044,0.264-0.128l0.931-1.177  c0.109-0.139,0.093-0.338-0.038-0.457C80.18,77.236,79.816,76.896,79.443,76.536z"/>
<path d="M77.54,80.754l-0.771,0.976c-0.362-0.15-0.748-0.301-1.152-0.449c-0.006-0.003-0.011-0.008-0.017-0.011h-0.01  c-0.003-0.001-0.007,0.002-0.01,0.001c-0.083-0.026-0.168-0.021-0.241,0.013c-0.002,0.001-0.003,0.002-0.004,0.003  c-0.068,0.032-0.123,0.091-0.156,0.164c-0.004,0.009-0.015,0.011-0.019,0.02c-0.003,0.009,0.004,0.017,0.002,0.025  c-0.022,0.078-0.019,0.157,0.012,0.228c0.002,0.003,0.003,0.007,0.005,0.01c0.036,0.077,0.101,0.14,0.187,0.171  c0.49,0.179,0.948,0.36,1.376,0.544c0.042,0.019,0.087,0.027,0.132,0.027c0.101,0,0.198-0.045,0.264-0.128l0.931-1.177  c0.114-0.146,0.09-0.356-0.056-0.472C77.867,80.583,77.656,80.607,77.54,80.754z"/>
<path d="M61.189,79.77c-0.96,0.141-1.93,0.38-2.87,0.71c-0.13,0.04-0.22,0.17-0.22,0.311c0,0.04,0,0.08,0.01,0.109  c0.051,0.141,0.181,0.23,0.32,0.23c0.04,0,0.07-0.01,0.11-0.021c0.899-0.319,1.819-0.54,2.74-0.67  c0.159-0.029,0.289-0.17,0.289-0.33c0-0.02,0-0.04,0-0.05C61.54,79.88,61.37,79.74,61.189,79.77z"/>
<path d="M55.64,81.689c-0.82,0.45-1.63,0.98-2.43,1.58c-0.01,0.011-0.021,0.021-0.03,0.03c-0.01,0-0.01,0.01-0.01,0.01  c-0.08,0.061-0.12,0.16-0.12,0.26c0,0.07,0.02,0.141,0.06,0.2c0.07,0.08,0.171,0.13,0.271,0.13c0.07,0,0.14-0.02,0.2-0.069  c0.77-0.58,1.569-1.101,2.359-1.54c0.011,0,0.021-0.01,0.03-0.021c0.1-0.06,0.16-0.17,0.16-0.29c0-0.06-0.01-0.109-0.04-0.16  C56.01,81.67,55.79,81.6,55.64,81.689z"/>
<path d="M67.02,79.55c-0.93-0.05-1.96-0.06-2.88-0.03c0,0-0.01,0-0.02,0c-0.011,0-0.021,0-0.03,0.011  c-0.17,0.01-0.31,0.149-0.31,0.329v0.011c0.01,0.189,0.149,0.33,0.34,0.33h0.01c0.99-0.04,1.939-0.03,2.85,0.02  c0.011,0,0.021,0,0.03,0c0.18,0,0.32-0.14,0.33-0.32v-0.02C67.34,79.7,67.2,79.56,67.02,79.55z"/>
<path d="M50.95,85.2c0,0,0,0.01-0.01,0.01c-0.007,0.007-0.01,0.018-0.017,0.025c-0.277,0.267-0.545,0.535-0.802,0.802  c-0.263-0.273-0.537-0.549-0.821-0.821V85.21c-0.087-0.081-0.209-0.085-0.323-0.051c-0.054,0.017-0.11,0.023-0.152,0.066  c0,0.001,0,0.001-0.001,0.002s-0.003,0.001-0.004,0.002c-0.12,0.13-0.12,0.34,0.01,0.471c0.002,0.002,0.006,0.001,0.008,0.003  c0.364,0.35,0.71,0.702,1.039,1.051c0.063,0.068,0.152,0.106,0.245,0.106s0.181-0.038,0.245-0.106  c0.329-0.349,0.675-0.702,1.04-1.052c0.001-0.001,0.004-0.001,0.005-0.002l0.01-0.011c0.06-0.06,0.1-0.149,0.1-0.239  c0-0.091-0.029-0.17-0.09-0.23C51.3,85.09,51.08,85.08,50.95,85.2z"/>
<path d="M72.81,80.42l-0.01-0.01c-0.94-0.23-1.89-0.42-2.86-0.57h-0.01c-0.18-0.03-0.35,0.1-0.38,0.28c0,0.02,0,0.04,0,0.05  c0,0.17,0.11,0.3,0.27,0.33l0.011,0.01c0.01,0,0.02,0,0.029,0c0.95,0.14,1.881,0.33,2.771,0.55c0.03,0.01,0.06,0.01,0.09,0.01  c0.15,0,0.28-0.1,0.32-0.25c0.02-0.09,0.01-0.17-0.04-0.25C72.96,80.5,72.89,80.439,72.81,80.42z"/>
</svg>